<?xml version='1.0' encoding='utf-8'?>
<!DOCTYPE svg PUBLIC '-//W3C//DTD SVG 1.1//EN' 'http://www.w3.org/Graphics/SVG/1.1/DTD/svg11.dtd'>
<svg version="1.1" xmlns="http://www.w3.org/2000/svg" viewBox="0 0 512 512" xmlns:xlink="http://www.w3.org/1999/xlink" enable-background="new 0 0 512 512">
  <g>
    <g>
      <path d="M480.3,15.6H386c-9.8,0-18.2,7-20,16.6l-50.4,267.5H96.9L58.5,161.1h167.7c11.3,0,20.4-9.1,20.4-20.4    c0-11.3-9.1-20.4-20.4-20.4H31.7c-18.2,0-22.4,16.2-19.6,25.8l49.7,179.4c2.4,8.8,10.5,14.9,19.6,14.9h251.1c9.8,0,18.2-7,20-16.6    L403,56.4h77.4c11.3,0,20.4-9.1,20.4-20.4C500.7,24.7,491.6,15.6,480.3,15.6z"/>
      <path d="m285,374.5c-33,0-59.8,27.3-59.8,61 0,33.6 26.8,61 59.8,61 33,0 59.8-27.3 59.8-61 0-33.7-26.8-61-59.8-61zm0,81.1c-10.5,0-19-9.1-19-20.2 0-11.1 8.5-20.2 19-20.2 10.5,0 19,9.1 19,20.2 0,11.2-8.5,20.2-19,20.2z"/>
      <path d="m126.7,374.5c-33,0-59.8,27.3-59.8,61 0,33.6 26.8,61 59.8,61 33,0 59.8-27.3 59.8-61 0-33.7-26.8-61-59.8-61zm0,81.1c-10.5,0-19-9.1-19-20.2 0-11.1 8.5-20.2 19-20.2 10.5,0 19,9.1 19,20.2 0,11.2-8.5,20.2-19,20.2z"/>
    </g>
  </g>
</svg>
