<?xml version="1.0"?>
<svg xmlns="http://www.w3.org/2000/svg" xmlns:xlink="http://www.w3.org/1999/xlink" xmlns:svgjs="http://svgjs.com/svgjs" version="1.1" width="512" height="512" x="0" y="0" viewBox="0 0 512 512" style="enable-background:new 0 0 512 512" xml:space="preserve" class=""><g>
<path xmlns="http://www.w3.org/2000/svg" style="" d="M256,0C115.3,0,0,115.3,0,256s115.3,256,256,256s256-115.3,256-256S396.7,0,256,0z" fill="#9abf15" data-original="#495a79" class=""/>
<path xmlns="http://www.w3.org/2000/svg" style="" d="M512,256c0,140.7-115.3,256-256,256V0C396.7,0,512,115.3,512,256z" fill="#222222" data-original="#42516d" class=""/>
<path xmlns="http://www.w3.org/2000/svg" style="" d="M433.495,271h-92.637L271,340.858v92.637c0,9.023,7.988,16.295,17.49,14.795  c81.812-13.77,146.03-77.988,159.8-159.8C449.828,279.353,442.761,271,433.495,271z" fill="#9abf15" data-original="#25b987" class=""/>
<path xmlns="http://www.w3.org/2000/svg" style="" d="M78.505,271c-9.265,0-16.333,8.353-14.795,17.49c13.77,81.812,77.988,146.03,159.8,159.8  c9.553,1.509,17.49-5.836,17.49-14.795v-92.637L171.142,271H78.505z" fill="#222222" data-original="#d94158" class=""/>
<path xmlns="http://www.w3.org/2000/svg" style="" d="M223.51,63.71c-81.812,13.77-146.03,77.988-159.8,159.8C62.172,232.647,69.24,241,78.505,241h92.637  L241,171.142V78.505C241,69.439,232.933,62.224,223.51,63.71z" fill="#222222" data-original="#ffcd33" class=""/>
<path xmlns="http://www.w3.org/2000/svg" style="" d="M433.495,241c9.265,0,16.333-8.353,14.795-17.49c-13.77-81.812-77.988-146.03-159.8-159.8  C279.212,62.19,271,69.339,271,78.505v92.637L340.858,241H433.495z" fill="#9abf15" data-original="#4596e6" class=""/>
<path xmlns="http://www.w3.org/2000/svg" style="" d="M359.801,241c-7.202-50.7-51-90-103.801-90s-96.599,39.3-103.801,90  c-0.899,4.799-1.199,9.899-1.199,15c0,5.099,0.3,10.199,1.199,15c7.202,50.7,51,90,103.801,90s96.599-39.3,103.801-90  c0.899-4.801,1.199-9.901,1.199-15C361,250.899,360.7,245.799,359.801,241z" fill="#9abf15" data-original="#e0e4ec" class=""/>
<path xmlns="http://www.w3.org/2000/svg" style="" d="M361,256c0,5.099-0.3,10.199-1.199,15c-7.202,50.7-51,90-103.801,90V151  c52.8,0,96.599,39.3,103.801,90C360.7,245.799,361,250.899,361,256z" fill="#222222" data-original="#d1d7e3" class=""/>
<rect xmlns="http://www.w3.org/2000/svg" x="181" y="241" style="" width="150" height="30" fill="#222222" data-original="#8c98b0" class=""/>
<rect xmlns="http://www.w3.org/2000/svg" x="256" y="241" style="" width="75" height="30" fill="#9abf15" data-original="#7d8aa3" class=""/>
<g xmlns="http://www.w3.org/2000/svg">
</g>
<g xmlns="http://www.w3.org/2000/svg">
</g>
<g xmlns="http://www.w3.org/2000/svg">
</g>
<g xmlns="http://www.w3.org/2000/svg">
</g>
<g xmlns="http://www.w3.org/2000/svg">
</g>
<g xmlns="http://www.w3.org/2000/svg">
</g>
<g xmlns="http://www.w3.org/2000/svg">
</g>
<g xmlns="http://www.w3.org/2000/svg">
</g>
<g xmlns="http://www.w3.org/2000/svg">
</g>
<g xmlns="http://www.w3.org/2000/svg">
</g>
<g xmlns="http://www.w3.org/2000/svg">
</g>
<g xmlns="http://www.w3.org/2000/svg">
</g>
<g xmlns="http://www.w3.org/2000/svg">
</g>
<g xmlns="http://www.w3.org/2000/svg">
</g>
<g xmlns="http://www.w3.org/2000/svg">
</g>
</g></svg>
